<svg width="296" height="110" viewBox="0 0 296 110" fill="none" xmlns="http://www.w3.org/2000/svg">
<path d="M0.864 0.0479965H31.2C39.0507 0.0479965 44.9387 2.224 48.864 6.576C52.7893 10.928 54.7947 17.3707 54.88 25.904L55.136 77.36C55.2213 88.1973 53.344 96.3467 49.504 101.808C45.664 107.269 39.3067 110 30.432 110H0.864V0.0479965ZM26.848 90.544C30.8587 90.544 32.864 88.5813 32.864 84.656V27.952C32.864 25.4773 32.6507 23.6427 32.224 22.448C31.8827 21.168 31.2 20.3147 30.176 19.888C29.152 19.4613 27.5733 19.248 25.44 19.248H23.008V90.544H26.848ZM63.989 110V0.0479965H108.021V21.296H86.389V42.672H107.125V63.408H86.389V88.624H109.429V110H63.989ZM116.739 110V0.0479965H139.395L149.507 52.656V0.0479965H170.755V110H149.251L138.243 54.96V110H116.739ZM179.465 110V0.0479965H200.713V110H179.465ZM209.489 110V0.0479965H243.025L252.241 67.12L261.457 0.0479965H295.249V110H275.153V30.768L262.481 110H242.769L229.329 30.768V110H209.489Z" fill="#151C22"/>
</svg>
